# Blender 3.3.0
# www.blender.org
mtllib crystal1.mtl
o defaultMaterial
v -0.407202 2.808497 -0.038250
v -0.487004 2.653680 0.071921
v -0.497643 2.601815 0.118374
v -0.435162 2.383514 0.377509
v -0.025875 2.452518 0.548650
v 0.084732 2.909175 0.148176
v -0.233451 2.908649 -0.038117
v 1.045372 0.212253 -0.613410
v 1.045917 0.882677 0.217066
v 0.799952 0.501545 0.704619
v 0.675401 -0.018065 0.525871
v 0.981853 -0.042913 -0.701963
v -0.025875 2.452518 0.548650
v -0.435162 2.383514 0.377509
v -0.478241 1.417731 0.946734
v -0.004812 1.878655 0.910714
v 0.407679 1.808416 -1.041222
v 0.267901 2.044118 -1.043297
v 0.308076 2.459316 -0.778886
v 0.565480 1.850303 -0.863406
v 0.563710 1.820563 -0.881586
v -0.004812 1.878655 0.910714
v -0.478241 1.417731 0.946734
v -0.565556 1.061152 1.041893
v 0.087967 1.549997 1.047488
v 0.405298 1.136767 1.044770
v 0.435332 1.009685 1.044506
v 0.799952 0.501545 0.704619
v 1.045917 0.882677 0.217066
v 1.045353 1.475181 0.004917
v 0.881860 1.889045 0.093137
v 0.849462 1.931009 0.124821
v -0.478241 1.417731 0.946734
v -0.435162 2.383514 0.377509
v -0.497643 2.601815 0.118374
v -1.049763 1.556981 -0.165928
v -1.042681 0.640754 0.459734
v -0.970113 0.543810 0.661620
v -0.684067 0.738794 1.040622
v -0.565556 1.061152 1.041893
v 0.435332 1.009685 1.044506
v -0.461596 0.266363 1.040622
v -0.451103 0.013920 0.931911
v 0.675401 -0.018065 0.525871
v 0.799952 0.501545 0.704619
v 0.407679 1.808416 -1.041222
v 0.563710 1.820563 -0.881586
v 1.044824 1.067425 -0.512475
v 1.045372 0.212253 -0.613410
v 0.981853 -0.042913 -0.701963
v 0.622544 0.106653 -1.041222
v -1.042681 0.640754 0.459734
v -1.042681 0.689001 -0.503780
v -1.014140 0.669930 -0.565000
v -0.530642 -0.027875 -0.584896
v -0.604724 0.008975 0.762237
v -0.970113 0.543810 0.661620
v 0.211687 2.797831 -0.600790
v 0.308076 2.459316 -0.778886
v 0.267901 2.044118 -1.043297
v 0.016258 2.136778 -1.043297
v 0.020716 2.484860 -0.837753
v 0.032434 2.529180 -0.808472
v 0.016258 2.136778 -1.043297
v 0.267901 2.044118 -1.043297
v 0.407679 1.808416 -1.041222
v 0.622544 0.106653 -1.041222
v 0.463885 -0.043163 -1.041236
v -0.475880 1.460846 -1.044015
v -0.453325 1.617482 -1.040402
v -0.435839 1.657675 -1.039916
v -0.604724 0.008975 0.762237
v -0.530642 -0.027875 -0.584896
v 0.463885 -0.043163 -1.041236
v 0.981853 -0.042913 -0.701963
v 0.675401 -0.018065 0.525871
v -0.451103 0.013920 0.931911
v -0.461596 0.266363 1.040622
v 0.435332 1.009685 1.044506
v 0.405298 1.136767 1.044770
v 0.087967 1.549997 1.047488
v -0.565556 1.061152 1.041893
v -0.684067 0.738794 1.040622
v 0.463885 -0.043163 -1.041236
v -0.530642 -0.027875 -0.584896
v -1.014140 0.669930 -0.565000
v -0.475880 1.460846 -1.044015
v 0.211687 2.797831 -0.600790
v 0.200642 2.902399 -0.493174
v 0.323991 2.913294 -0.096766
v 0.881860 1.889045 0.093137
v 1.045353 1.475181 0.004917
v 1.044822 1.100827 -0.496513
v 0.565480 1.850303 -0.863406
v 0.308076 2.459316 -0.778886
v 0.463885 -0.043163 -1.041236
v 0.622544 0.106653 -1.041222
v 0.981853 -0.042913 -0.701963
v -0.407202 2.808497 -0.038250
v -0.233451 2.908649 -0.038117
v -0.203656 2.907597 -0.343768
v -0.367538 2.810545 -0.379013
v -0.406721 2.785358 -0.378301
v -0.444624 2.759104 -0.368897
v -1.042681 0.689001 -0.503780
v -1.042681 0.640754 0.459734
v -1.049763 1.556981 -0.165928
v -1.050000 1.588576 -0.217876
v -1.050000 1.589280 -0.240898
v 0.313205 2.913589 -0.057077
v 0.323991 2.913294 -0.096766
v 0.200642 2.902399 -0.493174
v -0.203656 2.907597 -0.343768
v -0.233451 2.908649 -0.038117
v 0.084732 2.909175 0.148176
v -0.203656 2.907597 -0.343768
v 0.200642 2.902399 -0.493174
v 0.211687 2.797831 -0.600790
v 0.032434 2.529180 -0.808472
v -0.367538 2.810545 -0.379013
v -0.461596 0.266363 1.040622
v -0.684067 0.738794 1.040622
v -0.970113 0.543810 0.661620
v -0.604724 0.008975 0.762237
v -0.451103 0.013920 0.931911
v 0.881860 1.889045 0.093137
v 0.323991 2.913294 -0.096766
v 0.313205 2.913589 -0.057077
v 0.849462 1.931009 0.124821
v 0.313205 2.913589 -0.057077
v 0.084732 2.909175 0.148176
v -0.025875 2.452518 0.548650
v -0.004812 1.878655 0.910714
v 0.087967 1.549997 1.047488
v 0.405298 1.136767 1.044770
v 0.849462 1.931009 0.124821
v 0.565480 1.850303 -0.863406
v 1.044822 1.100827 -0.496513
v 1.044824 1.067425 -0.512475
v 0.563710 1.820563 -0.881586
v 1.045372 0.212253 -0.613410
v 1.044824 1.067425 -0.512475
v 1.044822 1.100827 -0.496513
v 1.045353 1.475181 0.004917
v 1.045917 0.882677 0.217066
v 0.020716 2.484860 -0.837753
v -0.406721 2.785358 -0.378301
v -0.367538 2.810545 -0.379013
v 0.032434 2.529180 -0.808472
v -1.050000 1.589280 -0.240898
v -0.725191 2.211628 -0.509039
v -0.453325 1.617482 -1.040402
v -0.475880 1.460846 -1.044015
v -1.014140 0.669930 -0.565000
v -1.042681 0.689001 -0.503780
v -0.453325 1.617482 -1.040402
v -0.725191 2.211628 -0.509039
v -0.705814 2.249151 -0.510215
v -0.435839 1.657675 -1.039916
v -0.444624 2.759104 -0.368897
v -0.406721 2.785358 -0.378301
v 0.020716 2.484860 -0.837753
v 0.016258 2.136778 -1.043297
v -0.435839 1.657675 -1.039916
v -0.705814 2.249151 -0.510215
v -1.049763 1.556981 -0.165928
v -0.497643 2.601815 0.118374
v -0.487004 2.653680 0.071921
v -1.050000 1.588576 -0.217876
v -0.705814 2.249151 -0.510215
v -0.725191 2.211628 -0.509039
v -1.050000 1.589280 -0.240898
v -1.050000 1.588576 -0.217876
v -0.487004 2.653680 0.071921
v -0.407202 2.808497 -0.038250
v -0.444624 2.759104 -0.368897
vn -0.3813 0.6595 0.6478
vn -0.3814 0.6595 0.6478
vn -0.3812 0.6596 0.6478
vn -0.3815 0.6596 0.6477
vn 0.9236 -0.3012 0.2374
vn 0.9236 -0.3011 0.2373
vn 0.9236 -0.3011 0.2374
vn -0.4061 0.4771 0.7794
vn -0.4056 0.4775 0.7794
vn 0.6450 0.3685 -0.6695
vn 0.6451 0.3685 -0.6694
vn 0.6450 0.3685 -0.6694
vn -0.2363 0.3098 0.9210
vn 0.8038 0.1993 0.5606
vn 0.8037 0.1993 0.5607
vn 0.8037 0.1992 0.5606
vn 0.8037 0.1993 0.5606
vn -0.8296 0.3123 0.4628
vn -0.8297 0.3123 0.4628
vn -0.8297 0.3123 0.4627
vn 0.3036 -0.3710 0.8776
vn 0.3036 -0.3708 0.8777
vn 0.3036 -0.3709 0.8777
vn 0.3036 -0.3709 0.8776
vn 0.6969 0.0876 -0.7118
vn -0.8159 -0.5774 -0.0301
vn 0.2071 0.5038 -0.8386
vn 0.0016 0.0004 -1.0000
vn 0.0016 0.0003 -1.0000
vn -0.0119 -0.9997 0.0222
vn -0.0028 -0.0039 1.0000
vn -0.0028 -0.0038 1.0000
vn -0.4059 -0.2557 -0.8774
vn -0.4060 -0.2557 -0.8774
vn -0.4060 -0.2556 -0.8774
vn 0.8630 0.4074 -0.2987
vn 0.8630 0.4073 -0.2987
vn 0.8630 0.4073 -0.2988
vn 0.8631 0.4073 -0.2987
vn 0.4741 -0.5020 -0.7234
vn -0.5117 0.8575 -0.0533
vn -1.0000 -0.0080 -0.0004
vn -1.0000 -0.0079 -0.0002
vn -1.0000 -0.0081 -0.0005
vn -0.0046 0.9999 -0.0099
vn -0.0046 0.9999 -0.0098
vn -0.2467 0.6856 -0.6849
vn -0.2467 0.6857 -0.6848
vn -0.6758 -0.3243 0.6619
vn 0.8405 0.4978 0.2138
vn 0.8405 0.4979 0.2138
vn 0.5909 0.4468 0.6717
vn 0.5910 0.4468 0.6717
vn 0.5910 0.4469 0.6716
vn 0.8103 0.2610 -0.5246
vn 1.0000 0.0008 -0.0013
vn 1.0000 0.0007 -0.0013
vn 1.0000 0.0005 -0.0014
vn -0.3766 0.5745 -0.7267
vn -0.3767 0.5745 -0.7267
vn -0.7939 0.1656 -0.5850
vn -0.7939 0.1656 -0.5851
vn -0.7939 0.1657 -0.5850
vn -0.6625 0.3082 -0.6827
vn -0.4843 0.4518 -0.7492
vn -0.4843 0.4518 -0.7493
vn -0.4842 0.4517 -0.7493
vn -0.8830 0.3998 0.2457
vn -0.8830 0.3998 0.2458
vn -0.8869 0.4617 0.0142
vn -0.8869 0.4617 0.0143
vt 0.783219 0.081244
vt 0.774829 0.115810
vt 0.775197 0.127961
vt 0.797930 0.182909
vt 0.875382 0.180604
vt 0.875382 0.074051
vt 0.812695 0.063101
vt 0.727837 0.118419
vt 0.609644 0.259710
vt 0.680349 0.350323
vt 0.773916 0.323838
vt 0.773916 0.105383
vt 0.177919 0.407371
vt 0.255379 0.409393
vt 0.255379 0.215768
vt 0.169053 0.290542
vt 0.942468 0.067886
vt 0.933514 0.114327
vt 0.984132 0.182909
vt 0.984132 0.067868
vt 0.980728 0.062898
vt 0.932601 0.182909
vt 0.932601 0.068701
vt 0.896419 0.014156
vt 0.876294 0.153570
vt 0.594428 0.095044
vt 0.575137 0.083392
vt 0.452651 0.092869
vt 0.446519 0.207639
vt 0.509118 0.296404
vt 0.583856 0.319736
vt 0.594428 0.318375
vt 0.445606 0.889076
vt 0.445606 0.695450
vt 0.422313 0.640737
vt 0.260913 0.774738
vt 0.276255 0.965610
vt 0.301786 0.997219
vt 0.390347 0.999544
vt 0.424332 0.950976
vt 0.654464 0.857618
vt 0.796869 0.999544
vt 0.843436 0.990317
vt 0.843436 0.783575
vt 0.746472 0.776211
vt 0.739996 0.351236
vt 0.701434 0.352522
vt 0.609644 0.491892
vt 0.634974 0.638336
vt 0.657377 0.680660
vt 0.739996 0.647276
vt 0.756678 0.492705
vt 0.740909 0.658458
vt 0.745839 0.669523
vt 0.891975 0.680661
vt 0.891975 0.447720
vt 0.779408 0.459026
vt 0.961190 0.350323
vt 0.983768 0.286096
vt 0.983768 0.200857
vt 0.938560 0.210768
vt 0.933278 0.280340
vt 0.934553 0.289641
vt 0.474875 0.320649
vt 0.446519 0.357227
vt 0.447620 0.404510
vt 0.571808 0.673243
vt 0.608732 0.680661
vt 0.608732 0.374576
vt 0.591103 0.353705
vt 0.584867 0.349422
vt 0.260000 0.971743
vt 0.260000 0.738802
vt 0.092943 0.650686
vt 0.000456 0.704227
vt 0.041612 0.918770
vt 0.231922 0.999544
vt 0.961415 0.999544
vt 0.961415 0.798491
vt 0.941220 0.788486
vt 0.851358 0.785144
vt 0.844349 0.925829
vt 0.874135 0.977079
vt 0.433116 0.333740
vt 0.268768 0.426809
vt 0.260912 0.573158
vt 0.433116 0.639825
vt 0.077005 0.636208
vt 0.099148 0.649773
vt 0.168140 0.630342
vt 0.168140 0.426396
vt 0.139300 0.353605
vt 0.039825 0.311549
vt 0.000456 0.472906
vt 0.034981 0.582645
vt 0.922773 0.352929
vt 0.892888 0.375847
vt 0.922773 0.459795
vt 0.693406 0.716399
vt 0.658793 0.716399
vt 0.654464 0.769225
vt 0.687338 0.775298
vt 0.695377 0.775192
vt 0.703342 0.773603
vt 0.932365 0.350323
vt 0.932365 0.183822
vt 0.779827 0.299578
vt 0.774829 0.308805
vt 0.774906 0.312780
vt 0.863894 0.776341
vt 0.869673 0.780463
vt 0.941251 0.784232
vt 0.941251 0.709836
vt 0.893558 0.686714
vt 0.844349 0.727062
vt 0.044047 0.027780
vt 0.000456 0.088067
vt 0.015409 0.109297
vt 0.076911 0.133980
vt 0.076911 0.021653
vt 0.248069 0.177564
vt 0.257645 0.087949
vt 0.169053 0.087949
vt 0.181940 0.200346
vt 0.218692 0.214855
vt 0.445606 0.639825
vt 0.445606 0.435878
vt 0.438510 0.436056
vt 0.438606 0.631786
vt 0.482222 0.681573
vt 0.446519 0.720761
vt 0.469398 0.824828
vt 0.523415 0.928799
vt 0.567070 0.974901
vt 0.653551 0.999544
vt 0.653551 0.776213
vt 0.433116 0.332827
vt 0.433116 0.166737
vt 0.427732 0.163297
vt 0.427707 0.330178
vt 0.999544 0.460708
vt 0.895643 0.566973
vt 0.892888 0.572738
vt 0.896975 0.680661
vt 0.999544 0.644917
vt 0.603028 0.319736
vt 0.603028 0.199652
vt 0.595341 0.202011
vt 0.595347 0.314338
vt 0.279624 0.204486
vt 0.260913 0.332827
vt 0.405838 0.321699
vt 0.422446 0.300007
vt 0.422446 0.115349
vt 0.411373 0.110438
vt 0.439168 0.286250
vt 0.439136 0.431603
vt 0.445606 0.434965
vt 0.445606 0.290224
vt 0.137078 0.310637
vt 0.144872 0.308353
vt 0.158188 0.189010
vt 0.114149 0.134893
vt 0.000456 0.134893
vt 0.042254 0.273467
vt 0.259265 0.649773
vt 0.259265 0.439996
vt 0.249091 0.433343
vt 0.249091 0.647201
vt 0.169053 0.535759
vt 0.170956 0.542798
vt 0.244290 0.649773
vt 0.248178 0.648948
vt 0.248178 0.435090
vt 0.222664 0.410306
vt 0.169619 0.433911
s 1
usemtl DefaultMaterial
f 7/7/1 1/1/2 2/2/2
f 7/7/1 2/2/2 3/3/3
f 7/7/1 3/3/3 4/4/2
f 7/7/1 4/4/2 5/5/4
f 5/5/4 6/6/2 7/7/1
f 12/12/5 8/8/5 9/9/5
f 12/12/5 9/9/5 10/10/6
f 10/10/6 11/11/7 12/12/5
f 16/16/8 13/13/8 14/14/8
s 0
f 14/14/9 15/15/9 16/16/9
s 1
f 21/21/10 17/17/10 18/18/11
f 21/21/10 18/18/11 19/19/12
f 19/19/12 20/20/10 21/21/10
f 25/25/13 22/22/13 23/23/13
f 23/23/13 24/24/13 25/25/13
f 32/32/14 26/26/15 27/27/15
f 32/32/14 27/27/15 28/28/15
f 32/32/14 28/28/15 29/29/16
f 32/32/14 29/29/16 30/30/17
f 30/30/17 31/31/17 32/32/14
f 40/40/18 33/33/18 34/34/19
f 40/40/18 34/34/19 35/35/20
f 40/40/18 35/35/20 36/36/19
f 40/40/18 36/36/19 37/37/19
f 40/40/18 37/37/19 38/38/19
f 38/38/19 39/39/19 40/40/18
f 45/45/21 41/41/22 42/42/23
f 45/45/21 42/42/23 43/43/24
f 43/43/24 44/44/24 45/45/21
f 51/51/25 46/46/25 47/47/25
f 51/51/25 47/47/25 48/48/25
f 51/51/25 48/48/25 49/49/25
f 49/49/25 50/50/25 51/51/25
f 57/57/26 52/52/26 53/53/26
f 57/57/26 53/53/26 54/54/26
f 57/57/26 54/54/26 55/55/26
f 55/55/26 56/56/26 57/57/26
f 63/63/27 58/58/27 59/59/27
f 63/63/27 59/59/27 60/60/27
f 63/63/27 60/60/27 61/61/27
f 61/61/27 62/62/27 63/63/27
f 71/71/28 64/64/28 65/65/29
f 71/71/28 65/65/29 66/66/28
f 71/71/28 66/66/28 67/67/28
f 71/71/28 67/67/28 68/68/28
f 71/71/28 68/68/28 69/69/28
f 69/69/28 70/70/28 71/71/28
f 77/77/30 72/72/30 73/73/30
f 77/77/30 73/73/30 74/74/30
f 77/77/30 74/74/30 75/75/30
f 75/75/30 76/76/30 77/77/30
f 83/83/31 78/78/32 79/79/31
f 83/83/31 79/79/31 80/80/31
f 83/83/31 80/80/31 81/81/31
f 81/81/31 82/82/31 83/83/31
f 87/87/33 84/84/34 85/85/35
f 85/85/35 86/86/33 87/87/33
f 95/95/36 88/88/36 89/89/37
f 95/95/36 89/89/37 90/90/36
f 95/95/36 90/90/36 91/91/36
f 95/95/36 91/91/36 92/92/37
f 95/95/36 92/92/37 93/93/38
f 93/93/38 94/94/39 95/95/36
s 0
f 96/96/40 97/97/40 98/98/40
s 1
f 104/104/41 99/99/41 100/100/41
f 104/104/41 100/100/41 101/101/41
f 104/104/41 101/101/41 102/102/41
f 102/102/41 103/103/41 104/104/41
s 0
f 109/109/42 105/105/42 106/106/42
f 109/109/43 106/106/43 107/107/43
s 1
f 107/107/44 108/108/44 109/109/44
f 115/115/45 110/110/45 111/111/45
f 115/115/45 111/111/45 112/112/46
f 115/115/45 112/112/46 113/113/45
f 113/113/45 114/114/45 115/115/45
f 120/120/47 116/116/47 117/117/47
f 120/120/47 117/117/47 118/118/48
f 118/118/48 119/119/47 120/120/47
f 125/125/49 121/121/49 122/122/49
f 125/125/49 122/122/49 123/123/49
f 123/123/49 124/124/49 125/125/49
f 129/129/50 126/126/50 127/127/50
f 127/127/50 128/128/51 129/129/50
f 136/136/52 130/130/52 131/131/53
f 136/136/52 131/131/53 132/132/52
f 136/136/52 132/132/52 133/133/52
s 0
f 136/136/54 133/133/54 134/134/54
s 1
f 134/134/52 135/135/52 136/136/52
f 140/140/55 137/137/55 138/138/55
f 138/138/55 139/139/55 140/140/55
s 0
f 145/145/56 141/141/56 142/142/56
f 145/145/57 142/142/57 143/143/57
f 143/143/58 144/144/58 145/145/58
s 1
f 149/149/59 146/146/60 147/147/60
f 147/147/60 148/148/60 149/149/59
f 155/155/61 150/150/61 151/151/62
f 155/155/61 151/151/62 152/152/63
f 155/155/61 152/152/63 153/153/63
f 153/153/63 154/154/63 155/155/61
f 159/159/64 156/156/64 157/157/64
f 157/157/64 158/158/64 159/159/64
f 165/165/65 160/160/66 161/161/66
f 165/165/65 161/161/66 162/162/65
f 165/165/65 162/162/65 163/163/67
f 163/163/67 164/164/67 165/165/65
f 169/169/68 166/166/69 167/167/69
f 167/167/69 168/168/69 169/169/68
f 176/176/70 170/170/70 171/171/70
f 176/176/70 171/171/70 172/172/70
f 176/176/70 172/172/70 173/173/71
f 176/176/70 173/173/71 174/174/70
f 174/174/70 175/175/70 176/176/70
