# Blender 3.3.0
# www.blender.org
mtllib wall.mtl
o Cube
v 0.000000 -0.000000 1.000000
v 0.000000 1.000000 1.000000
v 0.000000 0.000000 0.000000
v 0.000000 1.000000 0.000000
v 1.000000 -0.000000 1.000000
v 1.000000 1.000000 1.000000
v 1.000000 0.000000 0.000000
v 1.000000 1.000000 0.000000
v 0.000000 1.000000 0.666667
v 0.000000 1.000000 0.333333
v 0.333333 1.000000 0.000000
v 0.666667 1.000000 0.000000
v 1.000000 1.000000 0.333333
v 1.000000 1.000000 0.666667
v 0.666667 1.000000 1.000000
v 0.333333 1.000000 1.000000
v 0.666667 1.000000 0.333333
v 0.666667 1.000000 0.666667
v 0.333333 1.000000 0.333333
v 0.333333 1.000000 0.666667
v 0.000000 1.000000 0.666667
v 0.000000 1.000000 0.333333
v 0.333333 1.000000 0.000000
v 0.666667 1.000000 0.000000
v 1.000000 1.000000 0.333333
v 1.000000 1.000000 0.666667
v 0.666667 1.000000 1.000000
v 0.333333 1.000000 1.000000
v 0.666667 1.000000 0.666667
v 0.666667 1.000000 0.333333
v 0.333333 1.000000 0.666667
v 0.333333 1.000000 0.333333
v 0.000000 0.650000 0.666667
v 0.000000 0.650000 0.333333
v 0.333333 0.650000 0.000000
v 0.666667 0.650000 0.000000
v 1.000000 0.650000 0.333333
v 1.000000 0.650000 0.666667
v 0.666667 0.650000 1.000000
v 0.333333 0.650000 1.000000
v 0.616667 0.587500 0.616667
v 0.616667 0.587500 0.383333
v 0.383333 0.587500 0.616667
v 0.383333 0.587500 0.383333
v 0.000000 1.000000 0.222222
v 0.000000 1.000000 0.111111
v 0.111111 1.000000 0.000000
v 0.222222 1.000000 0.000000
v 0.333333 1.000000 0.111111
v 0.333333 1.000000 0.222222
v 0.111111 1.000000 0.333333
v 0.222222 1.000000 0.333333
v 0.222222 1.000000 0.111111
v 0.222222 1.000000 0.222222
v 0.111111 1.000000 0.111111
v 0.111111 1.000000 0.222222
v 0.222222 1.000000 1.000000
v 0.111111 1.000000 1.000000
v 0.000000 1.000000 0.888889
v 0.000000 1.000000 0.777778
v 0.333333 1.000000 0.777778
v 0.333333 1.000000 0.888889
v 0.111111 1.000000 0.666667
v 0.222222 1.000000 0.666667
v 0.222222 1.000000 0.777778
v 0.222222 1.000000 0.888889
v 0.111111 1.000000 0.777778
v 0.111111 1.000000 0.888889
v 1.000000 1.000000 0.777778
v 1.000000 1.000000 0.888889
v 0.888889 1.000000 1.000000
v 0.777778 1.000000 1.000000
v 0.666667 1.000000 0.777778
v 0.666667 1.000000 0.888889
v 0.777778 1.000000 0.666667
v 0.888889 1.000000 0.666667
v 0.888889 1.000000 0.777778
v 0.888889 1.000000 0.888889
v 0.777778 1.000000 0.777778
v 0.777778 1.000000 0.888889
v 0.777778 1.000000 0.000000
v 0.888889 1.000000 0.000000
v 1.000000 1.000000 0.111111
v 1.000000 1.000000 0.222222
v 0.666667 1.000000 0.111111
v 0.666667 1.000000 0.222222
v 0.777778 1.000000 0.333333
v 0.888889 1.000000 0.333333
v 0.888889 1.000000 0.111111
v 0.888889 1.000000 0.222222
v 0.777778 1.000000 0.111111
v 0.777778 1.000000 0.222222
v 0.000000 0.900000 0.222222
v 0.000000 0.900000 0.111111
v 0.111111 0.900000 0.000000
v 0.222222 0.900000 0.000000
v 0.333333 0.900000 0.111111
v 0.333333 0.900000 0.222222
v 0.111111 0.900000 0.333333
v 0.222222 0.900000 0.333333
v 0.222222 0.900000 0.222222
v 0.222222 0.900000 0.111111
v 0.111111 0.900000 0.222222
v 0.111111 0.900000 0.111111
v 0.111111 1.000000 0.666667
v 0.222222 1.000000 0.666667
v 0.222222 1.000000 0.777778
v 0.111111 1.000000 0.777778
v 0.222222 0.900000 1.000000
v 0.111111 0.900000 1.000000
v 0.000000 0.900000 0.888889
v 0.000000 0.900000 0.777778
v 0.333333 0.900000 0.777778
v 0.333333 0.900000 0.888889
v 0.222222 0.900000 0.888889
v 0.222222 0.900000 0.777778
v 0.111111 0.900000 0.888889
v 0.111111 0.900000 0.777778
v 0.111111 0.900000 0.666667
v 0.222222 0.900000 0.666667
v 0.222222 0.900000 0.777778
v 0.111111 0.900000 0.777778
v 1.000000 0.900000 0.777778
v 1.000000 0.900000 0.888889
v 0.888889 0.900000 1.000000
v 0.777778 0.900000 1.000000
v 0.666667 0.900000 0.777778
v 0.666667 0.900000 0.888889
v 0.777778 0.900000 0.666667
v 0.888889 0.900000 0.666667
v 0.888889 0.900000 0.888889
v 0.888889 0.900000 0.777778
v 0.777778 0.900000 0.888889
v 0.777778 0.900000 0.777778
v 0.777778 0.900000 0.000000
v 0.888889 0.900000 0.000000
v 1.000000 0.900000 0.111111
v 1.000000 0.900000 0.222222
v 0.666667 0.900000 0.111111
v 0.666667 0.900000 0.222222
v 0.777778 0.900000 0.333333
v 0.888889 0.900000 0.333333
v 0.888889 0.900000 0.222222
v 0.888889 0.900000 0.111111
v 0.777778 0.900000 0.222222
v 0.777778 0.900000 0.111111
v 0.666667 0.650000 0.333333
v 0.666667 0.650000 0.666667
v 0.333333 0.650000 0.333333
v 0.333333 0.650000 0.666667
vn -0.0000 1.0000 -0.0000
vn -1.0000 -0.0000 -0.0000
vn 1.0000 -0.0000 -0.0000
vn -0.0000 -0.0000 -1.0000
vn -0.0000 -0.0000 1.0000
vn -0.0001 1.0000 -0.0000
vn -0.0000 -0.0000 -0.0000
vn -0.7809 0.6247 -0.0000
vn 0.7809 0.6247 -0.0000
vn -0.0000 0.6247 0.7809
vn -0.0000 0.6247 -0.7809
vn 0.0001 -1.0000 -0.0000
vn -0.0000 -1.0000 -0.0000
vn -1.0000 -0.0001 -0.0000
vn 1.0000 0.0001 -0.0000
vt 0.333333 0.666667
vt 0.333333 0.333333
vt 0.481481 0.857407
vt 0.333333 1.000000
vt 0.333333 0.666667
vt 0.000000 0.666667
vt 0.666667 0.000000
vt 0.000000 1.000000
vt 0.666667 0.333333
vt 0.878531 0.832788
vt 0.666667 0.333333
vt 0.000000 0.333333
vt 0.841494 0.758714
vt 0.666667 0.666667
vt 0.000000 0.666667
vt 0.333333 0.000000
vt 0.333333 0.333333
vt 0.407407 0.820370
vt 0.333333 0.333333
vt 0.333333 0.666667
vt 0.222222 1.000000
vt 0.703704 0.811111
vt 0.444444 0.783333
vt 0.370370 0.857407
vt 0.111111 1.000000
vt 0.666667 0.583333
vt 0.444444 0.783333
vt 0.555556 0.333333
vt 0.777778 0.116667
vt 0.666667 0.350000
vt 0.444444 0.333333
vt 0.518519 0.857407
vt 0.555556 0.783333
vt 0.703704 0.848148
vt 0.222222 0.666667
vt 0.370370 0.820370
vt 0.666667 0.700000
vt 0.111111 0.666667
vt 0.518519 0.820370
vt 0.777778 0.233333
vt 0.555556 0.666667
vt 0.666667 0.466667
vt 0.804457 0.832788
vt 0.444444 0.666667
vt 0.407407 0.820370
vt 0.777778 0.350000
vt 0.444444 0.783333
vt 0.666667 0.233333
vt 0.777778 0.700000
vt 0.407407 0.783333
vt 0.333333 0.820370
vt 0.777778 0.583333
vt 0.666667 0.116667
vt 0.841494 0.758714
vt 0.777778 0.466667
vt 0.333333 0.783333
vt 0.222222 1.000000
vt 0.444444 0.783333
vt 0.111111 1.000000
vt 0.555556 0.333333
vt 0.777778 0.116667
vt 0.666667 0.350000
vt 0.444444 0.333333
vt 0.555556 0.783333
vt 0.222222 0.666667
vt 0.666667 0.700000
vt 0.111111 0.666667
vt 0.777778 0.233333
vt 0.555556 0.666667
vt 0.666667 0.466667
vt 0.444444 0.666667
vt 0.666667 0.233333
vt 0.777778 0.700000
vt 0.777778 0.350000
vt 0.444444 0.783333
vt 0.777778 0.466667
vt 0.333333 0.783333
vt 0.777778 0.583333
vt 0.666667 0.116667
vt 0.222222 0.883333
vt 0.777778 0.222222
vt 0.444444 0.666667
vt 0.111111 0.883333
vt 0.888889 0.222222
vt 0.666667 0.466667
vt 0.555556 0.216667
vt 0.777778 0.700000
vt 0.777778 0.000000
vt 0.666667 0.700000
vt 0.666667 0.233333
vt 0.444444 0.216667
vt 0.888889 0.000000
vt 0.555556 0.666667
vt 0.222222 0.550000
vt 0.777778 0.000000
vt 0.666667 0.583333
vt 0.111111 0.550000
vt 0.777778 0.116667
vt 0.555556 0.777778
vt 0.555556 0.550000
vt 0.666667 0.350000
vt 0.666667 0.777778
vt 0.444444 0.550000
vt 0.777778 0.853158
vt 0.555556 0.855555
vt 0.831137 0.664270
vt 0.555556 0.777778
vt 0.831137 0.742047
vt 0.777778 0.664270
vt 0.804457 0.742047
vt 0.633333 0.855555
vt 0.777778 0.775381
vt 0.777778 0.742047
vt 0.633333 0.777778
vt 0.804457 0.664270
vt 0.878531 0.795751
vt 0.370370 0.820370
vt 0.074074 1.000000
vt 0.037037 1.000000
vt 0.400000 0.857407
vt 0.841494 0.832788
vt 0.878531 0.795751
vt 0.882534 0.259259
vt 0.629630 0.333333
vt 0.592593 0.333333
vt 0.481482 0.783333
vt 0.874828 0.832788
vt 0.666667 0.885185
vt 0.444444 0.820370
vt 0.740741 0.116667
vt 0.333333 0.783333
vt 0.588889 0.855555
vt 0.703704 0.116667
vt 0.333333 0.857407
vt 0.555556 0.855555
vt 0.703704 0.583333
vt 0.851852 0.610566
vt 0.370370 0.820370
vt 0.740741 0.583333
vt 0.874828 0.869825
vt 0.481482 0.820370
vt 0.666667 0.848148
vt 0.588889 0.892593
vt 0.370370 0.783333
vt 0.851852 0.573529
vt 0.400000 0.894444
vt 0.841494 0.795751
vt 0.882534 0.222222
vt 0.333333 0.820370
vt 0.555556 0.892593
vt 0.878531 0.758714
vt 0.882534 0.296296
vt 0.804457 0.869825
vt 0.407407 0.666667
vt 0.444444 0.857407
vt 0.500000 0.857407
vt 0.370370 0.666667
vt 0.366667 0.894444
vt 0.481481 0.820370
vt 0.296296 1.000000
vt 0.259259 1.000000
vt 0.703704 0.848148
vt 0.804457 0.869825
vt 0.518519 0.857407
vt 0.740741 0.466667
vt 0.804457 0.758714
vt 0.841494 0.832788
vt 0.703704 0.466667
vt 0.633333 0.814815
vt 0.666667 0.811111
vt 0.407407 0.783333
vt 0.666667 0.233333
vt 0.841494 0.795751
vt 0.370370 0.783333
vt 0.666667 0.233333
vt 0.804457 0.795751
vt 0.518519 0.820370
vt 0.666667 0.233333
vt 0.633333 0.851852
vt 0.841494 0.869825
vt 0.882534 0.259259
vt 0.804457 0.906862
vt 0.666667 0.848148
vt 0.666667 0.233333
vt 0.444444 0.820370
vt 0.500000 0.894444
vt 0.366667 0.857407
vt 0.851852 0.647603
vt 0.370370 0.857407
vt 0.074074 0.666667
vt 0.878531 0.758714
vt 0.037037 0.666667
vt 0.466667 0.857407
vt 0.433333 0.894444
vt 0.841494 0.795751
vt 0.629630 0.666667
vt 0.481481 0.820370
vt 0.592593 0.666667
vt 0.333333 0.857407
vt 0.703704 0.233333
vt 0.407407 0.820370
vt 0.857817 0.647603
vt 0.851852 0.573529
vt 0.518519 0.783333
vt 0.740741 0.233333
vt 0.633333 0.814815
vt 0.370370 0.783333
vt 0.740741 0.700000
vt 0.703704 0.700000
vt 0.407407 0.820370
vt 0.518519 0.783333
vt 0.518519 0.820370
vt 0.407407 0.857407
vt 0.851852 0.610566
vt 0.466667 0.894444
vt 0.878531 0.795751
vt 0.433333 0.857407
vt 0.857817 0.684640
vt 0.633333 0.777778
vt 0.370370 0.820370
vt 0.481481 0.783333
vt 0.333333 0.894444
vt 0.851852 0.536492
vt 0.518519 0.820370
vt 0.874828 0.906862
vt 0.407407 0.333333
vt 0.370370 0.333333
vt 0.444444 0.820370
vt 0.878531 0.795751
vt 0.882534 0.333333
vt 0.407407 0.857407
vt 0.296296 0.666667
vt 0.703704 0.811111
vt 0.259259 0.666667
vt 0.841494 0.869825
vt 0.703704 0.350000
vt 0.740741 0.848148
vt 0.481481 0.857407
vt 0.841494 0.869825
vt 0.444444 0.820370
vt 0.740741 0.350000
vt 0.407407 0.783333
vt 0.481481 0.783333
vt 0.740741 0.811111
vt 0.703704 0.885185
vt 0.518518 0.783333
vt 0.740741 0.848148
vt 0.878531 0.832788
vt 0.444444 0.857407
vt 0.882534 0.296296
vt 0.841494 0.906862
vt 0.740741 0.811111
vt 0.703704 0.848148
vt 0.740741 0.885185
vt 0.481481 0.820370
vt 0.874828 0.869825
vt 0.444444 0.783333
vt 0.740741 0.848148
vt 0.841494 0.832788
vt 0.074074 0.966667
vt 0.803967 0.431735
vt 0.911865 0.795751
vt 0.037037 0.966667
vt 0.433333 0.857407
vt 0.777778 0.457924
vt 0.629630 0.300000
vt 0.777778 0.510303
vt 0.915868 0.259259
vt 0.803967 0.536492
vt 0.592593 0.300000
vt 0.908161 0.832788
vt 0.856345 0.536492
vt 0.700000 0.885185
vt 0.740741 0.083333
vt 0.882534 0.510303
vt 0.622222 0.855555
vt 0.703704 0.083333
vt 0.588889 0.855555
vt 0.856345 0.431735
vt 0.703704 0.550000
vt 0.882534 0.457924
vt 0.885185 0.610566
vt 0.740741 0.550000
vt 0.856345 0.484114
vt 0.885185 0.573529
vt 0.622222 0.892593
vt 0.700000 0.848148
vt 0.830156 0.510303
vt 0.908161 0.869825
vt 0.588889 0.892593
vt 0.830156 0.457924
vt 0.911865 0.758714
vt 0.433333 0.894444
vt 0.803967 0.484114
vt 0.915868 0.222222
vt 0.666667 0.233333
vt 0.857817 0.721677
vt 0.407407 0.783333
vt 0.370370 0.783333
vt 0.666667 0.233333
vt 0.633333 0.851852
vt 0.633333 0.888889
vt 0.666667 0.233333
vt 0.666667 0.233333
vt 0.857817 0.684640
vt 0.915868 0.296296
vt 0.851852 0.610566
vt 0.407407 0.633333
vt 0.851852 0.573529
vt 0.533333 0.857407
vt 0.370370 0.633333
vt 0.296296 0.966667
vt 0.814815 0.536492
vt 0.400000 0.894444
vt 0.259259 0.966667
vt 0.777778 0.536492
vt 0.837791 0.869825
vt 0.777778 0.647603
vt 0.740741 0.433333
vt 0.551852 0.857407
vt 0.703704 0.433333
vt 0.666667 0.814815
vt 0.814815 0.647603
vt 0.915868 0.259259
vt 0.666667 0.851852
vt 0.814815 0.610566
vt 0.551852 0.820370
vt 0.777778 0.610566
vt 0.666667 0.233333
vt 0.814815 0.573529
vt 0.533333 0.894444
vt 0.400000 0.857407
vt 0.777778 0.573529
vt 0.666667 0.233333
vt 0.837791 0.906862
vt 0.407407 0.750000
vt 0.841494 0.795751
vt 0.891150 0.721677
vt 0.804457 0.795751
vt 0.370370 0.750000
vt 0.666667 0.851852
vt 0.804457 0.832788
vt 0.666667 0.233333
vt 0.666667 0.888889
vt 0.666667 0.233333
vt 0.841494 0.832788
vt 0.891150 0.684640
vt 0.856345 0.431735
vt 0.885185 0.647603
vt 0.074074 0.633333
vt 0.882534 0.405546
vt 0.037037 0.633333
vt 0.500000 0.857407
vt 0.882534 0.353168
vt 0.629630 0.633333
vt 0.466667 0.894444
vt 0.856345 0.326979
vt 0.592593 0.633333
vt 0.366667 0.857407
vt 0.703704 0.200000
vt 0.777778 0.353168
vt 0.891150 0.647603
vt 0.740741 0.200000
vt 0.885185 0.573529
vt 0.803967 0.326979
vt 0.740741 0.666667
vt 0.666667 0.814815
vt 0.777778 0.405546
vt 0.803967 0.431735
vt 0.703704 0.666667
vt 0.551852 0.783333
vt 0.856345 0.379357
vt 0.466667 0.857407
vt 0.500000 0.894444
vt 0.551852 0.820370
vt 0.830156 0.405546
vt 0.885185 0.610566
vt 0.885185 0.536492
vt 0.830156 0.353168
vt 0.366667 0.894444
vt 0.666667 0.777778
vt 0.803967 0.379357
vt 0.891150 0.684640
vt 0.407407 0.300000
vt 0.803967 0.222222
vt 0.908161 0.906862
vt 0.777778 0.248411
vt 0.370370 0.300000
vt 0.911865 0.795751
vt 0.777778 0.300790
vt 0.915868 0.333333
vt 0.296296 0.633333
vt 0.259259 0.633333
vt 0.803967 0.326979
vt 0.874828 0.869825
vt 0.703704 0.316667
vt 0.774074 0.848148
vt 0.856345 0.222222
vt 0.740741 0.316667
vt 0.882534 0.248411
vt 0.874828 0.869825
vt 0.481481 0.750000
vt 0.774074 0.811111
vt 0.882534 0.300790
vt 0.518518 0.750000
vt 0.856345 0.326979
vt 0.737037 0.885185
vt 0.830156 0.300790
vt 0.737037 0.848148
vt 0.874828 0.906862
vt 0.915868 0.296296
vt 0.803967 0.274600
vt 0.911865 0.832788
vt 0.774074 0.848148
vt 0.856345 0.274600
vt 0.874828 0.832788
vt 0.774074 0.885185
vt 0.830156 0.248411
vt 0.908161 0.869825
vt 0.777778 0.233333
vt 0.888889 0.111111
vt 0.666667 0.811111
vt 0.444444 0.666667
vt 0.857817 0.758714
vt 0.804457 0.647603
vt 0.555556 0.666667
vt 0.666667 0.116667
vt 0.777778 0.111111
vt 0.777778 0.583333
vt 0.857817 0.647603
vt 0.804457 0.869825
vt 0.888889 0.111111
vt 0.777778 0.811111
vt 0.777778 0.466667
vt 0.666667 0.000000
vt 0.831137 0.647603
vt 0.804457 0.758714
vt 0.777778 0.350000
vt 0.666667 0.666667
vt 0.777778 0.111111
vt 0.333333 0.666667
vt 0.831137 0.758714
vt 0.804457 0.758714
s 0
f 59/159/1 58/155/1 68/185/1
f 74/204/1 72/197/1 80/221/1
f 86/240/1 87/242/1 92/257/1
f 139/396/2 24/62/2 36/90/2
f 45/117/1 51/134/1 56/149/1
f 127/360/2 29/72/2 148/427/2
f 3/6/2 1/1/2 34/83/2
f 150/438/3 113/319/3 114/321/3
f 7/16/4 3/7/4 36/91/4
f 150/439/1 39/99/1 148/426/1
f 147/421/1 38/95/1 37/92/1
f 35/87/1 147/422/1 36/89/1
f 44/114/1 41/105/1 42/107/1
f 34/84/1 150/440/1 149/432/1
f 148/429/4 129/366/4 130/370/4
f 142/405/5 141/402/5 37/93/5
f 54/144/1 19/51/1 50/131/1
f 46/120/5 104/293/5 55/146/5
f 48/126/1 49/129/1 11/27/1
f 51/135/3 103/290/3 56/150/3
f 53/142/5 97/273/5 49/128/5
f 4/10/1 55/147/1 47/122/1
f 66/180/1 16/43/1 62/167/1
f 108/304/6 118/334/5 122/345/1
f 64/173/1 61/166/1 20/54/1
f 65/178/6 121/343/5 116/329/1
f 9/22/1 67/183/1 63/170/1
f 66/181/2 109/306/2 57/152/2
f 78/216/1 6/13/1 70/191/1
f 76/210/1 69/189/1 14/36/1
f 76/211/2 132/375/2 77/212/2
f 80/223/4 128/364/4 74/203/4
f 79/219/3 129/367/3 75/206/3
f 18/50/1 79/220/1 75/207/1
f 90/252/1 13/34/1 84/233/1
f 85/237/5 146/417/5 91/254/5
f 82/228/1 83/231/1 8/18/1
f 87/244/3 145/414/3 92/258/3
f 89/250/5 137/391/5 83/230/5
f 12/32/1 91/255/1 81/224/1
f 103/291/1 100/281/1 101/284/1
f 102/288/1 98/275/1 97/272/1
f 95/267/1 102/288/1 96/269/1
f 104/294/1 101/284/1 102/288/1
f 94/265/1 103/291/1 104/294/1
f 54/145/2 100/282/2 52/137/2
f 50/132/4 101/286/4 54/143/4
f 120/340/4 150/441/4 33/82/4
f 55/148/3 95/268/3 47/123/3
f 56/151/4 93/262/4 45/116/4
f 48/127/2 102/289/2 53/140/2
f 62/169/4 115/325/4 66/179/4
f 65/177/5 113/320/5 61/164/5
f 63/172/7 108/304/7 105/296/7
f 65/178/7 106/300/7 107/303/7
f 117/330/1 109/307/1 115/326/1
f 116/328/1 114/323/1 113/318/1
f 118/333/1 115/326/1 116/328/1
f 112/316/1 117/330/1 118/333/1
f 119/337/1 121/342/1 120/339/1
f 118/334/2 121/343/2 122/345/5
f 34/85/5 149/434/5 99/280/5
f 60/163/5 118/335/5 67/182/5
f 58/156/3 117/331/3 68/186/3
f 106/301/2 121/344/2 107/302/2
f 68/187/4 111/314/4 59/158/4
f 108/305/3 119/338/3 105/297/3
f 133/379/1 125/354/1 131/372/1
f 132/376/1 124/351/1 123/348/1
f 129/368/1 132/376/1 130/369/1
f 134/382/1 131/372/1 132/376/1
f 127/361/1 133/379/1 134/382/1
f 1/2/5 5/11/5 40/103/5
f 77/214/5 123/349/5 69/188/5
f 72/199/3 133/380/3 80/222/3
f 73/202/5 134/383/5 79/218/5
f 5/12/3 7/17/3 38/97/3
f 78/217/2 125/356/2 71/194/2
f 70/193/4 131/374/4 78/215/4
f 145/415/1 142/406/1 143/408/1
f 144/412/1 138/394/1 137/390/1
f 135/385/1 144/412/1 136/387/1
f 146/418/1 143/408/1 144/412/1
f 139/398/1 145/415/1 146/418/1
f 90/253/2 142/407/2 88/245/2
f 84/235/4 143/410/4 90/251/4
f 35/88/3 97/274/3 98/277/3
f 91/256/3 135/386/3 81/225/3
f 92/259/4 140/401/4 86/239/4
f 82/229/2 144/413/2 89/248/2
f 41/106/8 147/424/8 42/108/8
f 44/115/9 150/442/9 43/110/9
f 42/109/10 149/437/10 44/113/10
f 43/112/11 148/431/11 41/104/11
f 59/159/1 2/3/1 58/155/1
f 74/204/1 15/39/1 72/197/1
f 86/240/1 17/45/1 87/242/1
f 30/74/7 17/46/7 86/241/7
f 30/74/2 86/241/2 140/399/2
f 36/90/2 147/420/2 140/399/2
f 147/420/2 30/74/2 140/399/2
f 85/236/7 12/30/7 24/62/7
f 139/396/2 85/236/2 24/62/2
f 36/90/2 140/399/2 139/396/2
f 45/117/1 10/24/1 51/134/1
f 27/68/7 15/40/7 74/205/7
f 27/68/2 74/205/2 128/363/2
f 148/427/2 39/98/2 128/363/2
f 39/98/2 27/68/2 128/363/2
f 73/200/7 18/48/7 29/72/7
f 127/360/2 73/200/2 29/72/2
f 148/427/2 128/363/2 127/360/2
f 1/1/2 2/4/2 111/312/2
f 2/4/2 59/160/2 111/312/2
f 46/119/2 4/8/2 94/263/2
f 4/8/2 3/6/2 94/263/2
f 1/1/2 111/312/2 33/80/2
f 111/312/2 112/315/2 33/80/2
f 60/161/7 9/21/7 21/57/7
f 60/161/2 21/57/2 112/315/2
f 21/57/2 33/80/2 112/315/2
f 34/83/12 22/59/5 10/25/13
f 34/83/2 10/25/2 93/260/2
f 10/25/2 45/118/2 93/260/2
f 1/1/2 33/80/2 34/83/2
f 93/260/2 94/263/2 34/83/2
f 94/263/2 3/6/2 34/83/2
f 62/168/7 16/42/7 28/70/7
f 28/70/3 40/101/3 114/321/3
f 40/101/3 150/438/3 114/321/3
f 31/76/7 20/55/7 61/165/7
f 114/321/3 62/168/3 28/70/3
f 31/76/3 61/165/3 113/319/3
f 150/438/3 31/76/3 113/319/3
f 3/7/4 4/9/4 95/266/4
f 4/9/4 47/124/4 95/266/4
f 82/227/4 8/19/4 136/388/4
f 8/19/4 7/16/4 136/388/4
f 3/7/4 95/266/4 35/86/4
f 95/266/4 96/270/4 35/86/4
f 48/125/14 11/28/5 23/60/3
f 48/125/4 23/60/4 96/270/4
f 23/60/4 35/86/4 96/270/4
f 36/91/12 24/63/5 12/31/1
f 36/91/4 12/31/4 135/384/4
f 12/31/4 81/226/4 135/384/4
f 3/7/4 35/86/4 36/91/4
f 135/384/4 136/388/4 36/91/4
f 136/388/4 7/16/4 36/91/4
f 150/439/1 40/102/1 39/99/1
f 147/421/1 148/428/1 38/95/1
f 35/87/1 149/433/1 147/422/1
f 44/114/1 43/111/1 41/105/1
f 34/84/1 33/81/1 150/440/1
f 76/209/14 14/37/5 26/66/3
f 26/66/4 38/96/4 130/370/4
f 38/96/4 148/429/4 130/370/4
f 29/73/5 18/49/2 75/208/15
f 130/370/4 76/209/4 26/66/4
f 29/73/4 75/208/4 129/366/4
f 148/429/4 29/73/4 129/366/4
f 87/243/5 17/47/5 30/75/5
f 30/75/5 147/423/5 141/402/5
f 147/423/5 37/93/5 141/402/5
f 25/64/5 13/33/5 88/246/5
f 141/402/5 87/243/5 30/75/5
f 25/64/5 88/246/5 142/405/5
f 37/93/5 25/64/5 142/405/5
f 54/144/1 52/138/1 19/51/1
f 46/120/5 94/264/5 104/293/5
f 48/126/1 53/141/1 49/129/1
f 51/135/3 99/278/3 103/290/3
f 53/142/5 102/287/5 97/273/5
f 4/10/1 46/121/1 55/147/1
f 66/180/1 57/153/1 16/43/1
f 108/304/5 67/184/1 118/334/12
f 64/173/1 65/176/1 61/166/1
f 65/178/5 107/303/1 121/343/12
f 9/22/1 60/162/1 67/183/1
f 66/181/2 115/324/2 109/306/2
f 78/216/1 71/195/1 6/13/1
f 76/210/1 77/213/1 69/189/1
f 76/211/2 130/371/2 132/375/2
f 80/223/4 133/378/4 128/364/4
f 79/219/3 134/381/3 129/367/3
f 18/50/1 73/201/1 79/220/1
f 90/252/1 88/247/1 13/34/1
f 85/237/5 139/397/5 146/417/5
f 82/228/1 89/249/1 83/231/1
f 87/244/3 141/403/3 145/414/3
f 89/250/5 144/411/5 137/391/5
f 12/32/1 85/238/1 91/255/1
f 103/291/1 99/279/1 100/281/1
f 102/288/1 101/284/1 98/275/1
f 95/267/1 104/294/1 102/288/1
f 104/294/1 103/291/1 101/284/1
f 94/265/1 93/261/1 103/291/1
f 54/145/2 101/285/2 100/282/2
f 50/132/4 98/276/4 101/286/4
f 33/82/12 21/58/5 9/23/13
f 63/171/5 105/298/13 119/336/12
f 33/82/4 9/23/4 119/336/4
f 9/23/4 63/171/4 119/336/4
f 20/56/5 31/77/13 150/441/12
f 120/340/12 106/299/5 64/174/13
f 64/174/4 20/56/4 120/340/4
f 20/56/4 150/441/4 120/340/4
f 33/82/4 119/336/4 120/340/4
f 55/148/3 104/295/3 95/268/3
f 56/151/4 103/292/4 93/262/4
f 48/127/2 96/271/2 102/289/2
f 62/169/4 114/322/4 115/325/4
f 65/177/5 116/327/5 113/320/5
f 63/172/7 67/184/7 108/304/7
f 65/178/7 64/175/7 106/300/7
f 117/330/1 110/309/1 109/307/1
f 116/328/1 115/326/1 114/323/1
f 118/333/1 117/330/1 115/326/1
f 112/316/1 111/313/1 117/330/1
f 119/337/1 122/346/1 121/342/1
f 118/334/14 116/329/5 121/343/2
f 149/434/5 32/78/5 19/52/5
f 19/52/5 52/139/5 100/283/5
f 149/434/5 19/52/5 100/283/5
f 99/280/5 51/136/5 10/26/5
f 149/434/5 100/283/5 99/280/5
f 10/26/5 34/85/5 99/280/5
f 60/163/5 112/317/5 118/335/5
f 58/156/3 110/310/3 117/331/3
f 106/301/2 120/341/2 121/344/2
f 68/187/4 117/332/4 111/314/4
f 108/305/3 122/347/3 119/338/3
f 133/379/1 126/357/1 125/354/1
f 132/376/1 131/372/1 124/351/1
f 129/368/1 134/382/1 132/376/1
f 134/382/1 133/379/1 131/372/1
f 127/361/1 128/365/1 133/379/1
f 5/11/5 6/14/5 125/355/5
f 6/14/5 71/196/5 125/355/5
f 58/157/5 2/5/5 110/311/5
f 2/5/5 1/2/5 110/311/5
f 5/11/5 125/355/5 39/100/5
f 125/355/5 126/358/5 39/100/5
f 72/198/5 15/41/5 27/69/5
f 72/198/5 27/69/5 126/358/5
f 27/69/5 39/100/5 126/358/5
f 40/103/5 28/71/5 16/44/5
f 40/103/5 16/44/5 109/308/5
f 16/44/5 57/154/5 109/308/5
f 5/11/5 39/100/5 40/103/5
f 109/308/5 110/311/5 40/103/5
f 110/311/5 1/2/5 40/103/5
f 77/214/5 132/377/5 123/349/5
f 72/199/3 126/359/3 133/380/3
f 73/202/5 127/362/5 134/383/5
f 7/17/3 8/20/3 137/392/3
f 8/20/3 83/232/3 137/392/3
f 70/192/3 6/15/3 124/352/3
f 6/15/3 5/12/3 124/352/3
f 7/17/3 137/392/3 37/94/3
f 137/392/3 138/393/3 37/94/3
f 84/234/7 13/35/7 25/65/7
f 84/234/3 25/65/3 138/393/3
f 25/65/3 37/94/3 138/393/3
f 38/97/12 26/67/5 14/38/1
f 38/97/3 14/38/3 123/350/3
f 14/38/3 69/190/3 123/350/3
f 7/17/3 37/94/3 38/97/3
f 123/350/3 124/352/3 38/97/3
f 124/352/3 5/12/3 38/97/3
f 78/217/2 131/373/2 125/356/2
f 70/193/4 124/353/4 131/374/4
f 145/415/1 141/404/1 142/406/1
f 144/412/1 143/408/1 138/394/1
f 135/385/1 146/418/1 144/412/1
f 146/418/1 145/415/1 143/408/1
f 139/398/1 140/400/1 145/415/1
f 90/253/2 143/409/2 142/407/2
f 84/235/4 138/395/4 143/410/4
f 50/133/7 19/53/7 32/79/7
f 32/79/3 149/435/3 98/277/3
f 149/435/3 35/88/3 98/277/3
f 23/61/7 11/29/7 49/130/7
f 98/277/3 50/133/3 32/79/3
f 23/61/3 49/130/3 97/274/3
f 35/88/3 23/61/3 97/274/3
f 91/256/3 146/419/3 135/386/3
f 92/259/4 145/416/4 140/401/4
f 82/229/2 136/389/2 144/413/2
f 41/106/8 148/430/8 147/424/8
f 44/115/9 149/436/9 150/442/9
f 42/109/10 147/425/10 149/437/10
f 43/112/11 150/443/11 148/431/11
